<svg xmlns="http://www.w3.org/2000/svg" xmlns:xlink="http://www.w3.org/1999/xlink" version="1.1" x="0px" y="0px" viewBox="0 0 128 160" enable-background="new 0 0 128 128" xml:space="preserve"><path d="M71.543,86.041c0,0,3.311-1.499,0.687-6.622c-2.623-5.122-5.872-5.436-5.872-11.057c0,0-4.312,11.057-0.626,15.492  C65.731,83.854,67.731,87.727,71.543,86.041z"/><path d="M76.008,76.336c0,0,3.385-1.324,1.032-6.576c-2.353-5.253-5.579-5.736-5.286-11.351c0,0-4.883,10.818-1.434,15.44  C70.32,73.85,72.113,77.821,76.008,76.336z"/><path d="M80.67,66.889c0,0,3.423-1.225,1.226-6.544c-2.197-5.32-5.409-5.898-4.951-11.5c0,0-5.199,10.669-1.886,15.391  C75.059,64.235,76.734,68.259,80.67,66.889z"/><path d="M85.916,56.964c0,0,3.375-1.351,0.981-6.585c-2.393-5.234-5.624-5.692-5.374-11.308c0,0-4.8,10.855-1.314,15.451  C80.209,54.522,82.033,58.479,85.916,56.964z"/><path d="M90.34,47.246c0,0,3.445-1.159,1.351-6.519c-2.094-5.361-5.296-6-4.729-11.593c0,0-5.402,10.567-2.182,15.352  C84.78,44.485,86.379,48.539,90.34,47.246z"/><path d="M80.111,82.63c-5.652,1.079-4.8,4.61-4.8,4.61c1.014,4.043,5.297,3.238,5.297,3.238c5.764,0.18,11.834-10.017,11.834-10.017  C88.01,83.919,85.764,81.548,80.111,82.63z"/><path d="M80.221,77.754c1.225,3.983,5.459,2.955,5.459,2.955c5.767-0.12,11.294-10.621,11.294-10.621  c-4.248,3.681-6.611,1.435-12.202,2.809C79.183,74.271,80.221,77.754,80.221,77.754z"/><path d="M84.805,68.268c1.34,3.946,5.543,2.796,5.543,2.796c5.76-0.291,10.977-10.95,10.977-10.95  c-4.136,3.806-6.566,1.628-12.112,3.166C83.665,64.816,84.805,68.268,84.805,68.268z"/><path d="M93.994,53.207c-5.599,1.331-4.588,4.823-4.588,4.823c1.192,3.992,5.435,3,5.435,3c5.767-0.077,11.376-10.537,11.376-10.537  C101.942,54.145,99.595,51.876,93.994,53.207z"/><path d="M94.35,48.567c1.416,3.918,5.596,2.687,5.596,2.687c5.753-0.4,10.765-11.159,10.765-11.159  c-4.063,3.886-6.535,1.754-12.05,3.397C93.146,45.137,94.35,48.567,94.35,48.567z"/><path d="M65.469,99.356l2.643,1.072c2.144-3.856,7.144-8.856,7.144-8.856l-6.001-3.645C69.396,92.072,65.469,99.356,65.469,99.356z"/><path d="M103.906,41.188c2.487-3.253,7.845-15.976,7.845-15.976c-4.21,8.227-10.332,15.976-10.332,15.976H103.906z"/><path d="M98.155,19.067c0,0-7.153,11.806-8.326,15.729l1.46,2.013C91.289,36.81,93.967,27.305,98.155,19.067z"/><path d="M100.896,28.456c-2.288,1.23-5.162,3.582-6.866,6.582c-1.983,3.492,1.587,6.396,1.692,6.48l-0.002,0.001l0.007,0.003  l0.005,0.005l0.002-0.005c0.132,0.029,4.65,0.896,6.043-2.873c1.258-3.394,1.141-7.323,0.537-9.867l4.845-11.127L100.896,28.456z"/><path d="M55.595,100.89c0,0,0.339-3.079-4.56-3.379c-4.896-0.298-6.539,1.949-10.664-0.491c0,0,6.244,7.964,11.098,7.185  C51.469,104.204,55.177,104.419,55.595,100.89z"/><path d="M50.412,93.4c0,0,0.499-3.061-4.377-3.613c-4.876-0.554-6.631,1.604-10.625-1.05c0,0,5.818,8.28,10.708,7.757  C46.118,96.494,49.81,96.902,50.412,93.4z"/><path d="M45.503,85.877c0,0,0.588-3.042-4.27-3.738c-4.857-0.699-6.675,1.409-10.588-1.361c0,0,5.574,8.449,10.475,8.066  C41.12,88.844,44.8,89.36,45.503,85.877z"/><path d="M40.499,77.72c0,0,0.473-3.063-4.405-3.577c-4.88-0.518-6.621,1.653-10.632-0.967c0,0,5.881,8.231,10.768,7.671  C36.229,80.847,39.925,81.228,40.499,77.72z"/><path d="M35.288,70.256c0,0,0.645-3.033-4.197-3.822c-4.845-0.791-6.703,1.28-10.561-1.564c0,0,5.409,8.553,10.316,8.267  C30.847,73.137,34.517,73.725,35.288,70.256z"/><path d="M56.812,93.119c-1.662,4.618,1.301,5.526,1.301,5.526c3.405,1.011,4.676-2.481,4.676-2.481  c2.634-4.151-2.215-13.034-2.215-13.034C61.186,87.886,58.473,88.504,56.812,93.119z"/><path d="M53.281,90.924c3.453,0.83,4.538-2.722,4.538-2.722c2.415-4.283-2.891-12.899-2.891-12.899  c0.858,4.714-1.817,5.475-3.236,10.173C50.275,90.174,53.281,90.924,53.281,90.924z"/><path d="M48.31,83.441c3.477,0.731,4.457-2.853,4.457-2.853c2.288-4.353-3.268-12.808-3.268-12.808  c0.996,4.687-1.656,5.526-2.936,10.261C45.283,82.779,48.31,83.441,48.31,83.441z"/><path d="M41.249,70.161c-1.456,4.685,1.546,5.459,1.546,5.459c3.447,0.858,4.561-2.687,4.561-2.687  c2.446-4.263-2.793-12.921-2.793-12.921C45.387,64.735,42.702,65.473,41.249,70.161z"/><path d="M37.997,67.885c3.492,0.662,4.401-2.938,4.401-2.938c2.205-4.397-3.514-12.744-3.514-12.744  c1.087,4.668-1.549,5.556-2.739,10.317C34.958,67.28,37.997,67.885,37.997,67.885z"/><path d="M62.729,111.128l1.935-1.474c-1.899-3.247-3.399-9.088-3.399-9.088l-5.277,2.823  C59.089,105.083,62.729,111.128,62.729,111.128z"/><path d="M36.73,57.668c-1.308-3.237-8.317-12.69-8.317-12.69c4.209,6.66,7.238,14.517,7.238,14.517L36.73,57.668z"/><path d="M18.002,52.286c0,0,5.559,10.375,7.927,12.94l2.112-0.198C28.042,65.027,22.23,58.937,18.002,52.286z"/><path d="M26.082,54.351c-0.09,2.213,0.388,5.343,1.849,7.896c1.701,2.972,5.382,1.612,5.491,1.572v0.001l0.004-0.003l0.006-0.002  l-0.002-0.002c0.078-0.086,2.676-3.022,0.516-5.682c-1.944-2.396-4.88-4.017-7.008-4.678l-6.063-8.386L26.082,54.351z"/><text x="0" y="143" fill="#000000" font-size="5px" font-weight="bold" font-family="'Helvetica Neue', Helvetica, Arial-Unicode, Arial, Sans-serif">Created by Creative Stall</text><text x="0" y="148" fill="#000000" font-size="5px" font-weight="bold" font-family="'Helvetica Neue', Helvetica, Arial-Unicode, Arial, Sans-serif">from the Noun Project</text></svg>